<svg xmlns="http://www.w3.org/2000/svg" xmlns:xlink="http://www.w3.org/1999/xlink" width="512" zoomAndPan="magnify" viewBox="0 0 384 383.999986" height="512" preserveAspectRatio="xMidYMid meet" version="1.0"><defs><clipPath id="583c73821b"><path d="M 133.21875 86.734375 L 250.96875 86.734375 L 250.96875 243.484375 L 133.21875 243.484375 Z M 133.21875 86.734375 " clip-rule="nonzero"/></clipPath></defs><path fill="#ffffff" d="M 324.914062 0 L 59.085938 0 C 26.496094 0 0 26.496094 0 59.085938 L 0 268.851562 C 0 301.414062 26.496094 327.9375 59.085938 327.9375 L 125.824219 327.9375 L 157.363281 367.359375 C 165.835938 377.933594 178.457031 384 192 384 C 205.542969 384 218.164062 377.933594 226.636719 367.359375 L 258.175781 327.9375 L 324.914062 327.9375 C 357.503906 327.9375 384 301.441406 384 268.851562 L 384 59.085938 C 384 26.496094 357.503906 0 324.914062 0 Z M 354.457031 268.851562 C 354.457031 285.132812 341.195312 298.394531 324.914062 298.394531 L 251.085938 298.394531 C 246.605469 298.394531 242.355469 300.441406 239.539062 303.949219 L 203.546875 348.929688 C 197.914062 355.992188 186.0625 355.992188 180.429688 348.929688 L 144.433594 303.949219 C 141.621094 300.441406 137.371094 298.394531 132.890625 298.394531 L 59.085938 298.394531 C 42.804688 298.394531 29.542969 285.160156 29.542969 268.851562 L 29.542969 59.085938 C 29.542969 42.804688 42.804688 29.542969 59.085938 29.542969 L 324.941406 29.542969 C 341.222656 29.542969 354.484375 42.777344 354.484375 59.085938 L 354.484375 268.851562 Z M 354.457031 268.851562 " fill-opacity="1" fill-rule="nonzero"/><path fill="#000000" d="M 224.859375 120.710938 C 213.535156 120.710938 204.433594 129.8125 204.433594 141.136719 C 204.433594 152.460938 213.535156 161.5625 224.859375 161.5625 C 236.183594 161.5625 245.285156 152.460938 245.285156 141.136719 C 245.285156 129.8125 236.183594 120.710938 224.859375 120.710938 Z M 224.859375 120.710938 " fill-opacity="1" fill-rule="evenodd"/><g clip-path="url(#583c73821b)"><path fill="#000000" d="M 133.445312 86.734375 L 172.074219 86.734375 L 172.074219 181.988281 L 214.949219 181.988281 L 250.542969 243.472656 L 207.464844 243.472656 L 172.074219 181.988281 L 172.074219 243.472656 L 133.445312 243.472656 Z M 133.445312 86.734375 " fill-opacity="1" fill-rule="evenodd"/></g></svg>