<svg xmlns="http://www.w3.org/2000/svg" xmlns:xlink="http://www.w3.org/1999/xlink" width="512" zoomAndPan="magnify" viewBox="0 0 384 383.999986" height="512" preserveAspectRatio="xMidYMid meet" version="1.0"><defs><clipPath id="ee614375a9"><path d="M 133.21875 86.734375 L 250.96875 86.734375 L 250.96875 243.484375 L 133.21875 243.484375 Z M 133.21875 86.734375 " clip-rule="nonzero"/></clipPath><clipPath id="ac9694f87a"><path d="M 203.820312 118.941406 L 246.160156 118.941406 L 246.160156 161.28125 L 203.820312 161.28125 Z M 203.820312 118.941406 " clip-rule="nonzero"/></clipPath><clipPath id="e3a401cfb4"><path d="M 224.988281 118.941406 C 213.296875 118.941406 203.820312 128.421875 203.820312 140.113281 C 203.820312 151.804688 213.296875 161.28125 224.988281 161.28125 C 236.683594 161.28125 246.160156 151.804688 246.160156 140.113281 C 246.160156 128.421875 236.683594 118.941406 224.988281 118.941406 Z M 224.988281 118.941406 " clip-rule="nonzero"/></clipPath></defs><path fill="#000000" d="M 384 59.085938 L 384 268.851562 C 384 301.414062 357.503906 327.9375 324.914062 327.9375 L 258.175781 327.9375 L 226.636719 367.359375 C 218.164062 377.933594 205.542969 384 192 384 C 178.457031 384 165.835938 377.933594 157.363281 367.359375 L 125.824219 327.910156 L 59.085938 327.910156 C 26.496094 327.910156 0 301.414062 0 268.851562 L 0 59.085938 C 0 26.496094 26.496094 0 59.085938 0 L 324.941406 0 C 357.503906 0 384 26.496094 384 59.085938 Z M 384 59.085938 " fill-opacity="1" fill-rule="nonzero"/><path fill="#000000" d="M 224.859375 120.710938 C 213.535156 120.710938 204.433594 129.8125 204.433594 141.136719 C 204.433594 152.460938 213.535156 161.5625 224.859375 161.5625 C 236.183594 161.5625 245.285156 152.460938 245.285156 141.136719 C 245.285156 129.8125 236.183594 120.710938 224.859375 120.710938 Z M 224.859375 120.710938 " fill-opacity="1" fill-rule="evenodd"/><g clip-path="url(#ee614375a9)"><path fill="#ffffff" d="M 133.445312 86.734375 L 172.074219 86.734375 L 172.074219 181.988281 L 214.949219 181.988281 L 250.542969 243.472656 L 207.464844 243.472656 L 172.074219 181.988281 L 172.074219 243.472656 L 133.445312 243.472656 Z M 133.445312 86.734375 " fill-opacity="1" fill-rule="evenodd"/></g><g clip-path="url(#ac9694f87a)"><g clip-path="url(#e3a401cfb4)"><path fill="#ffffff" d="M 203.820312 118.941406 L 246.160156 118.941406 L 246.160156 161.28125 L 203.820312 161.28125 Z M 203.820312 118.941406 " fill-opacity="1" fill-rule="nonzero"/></g></g></svg>